<svg width="51" height="44" viewBox="0 0 51 44" fill="none" xmlns="http://www.w3.org/2000/svg">
<path d="M42.1194 25.3847H33.8459C33.6215 25.3847 33.4063 25.2956 33.2476 25.1369C33.0889 24.9782 32.9998 24.763 32.9998 24.5385C32.9998 24.3142 33.0889 24.099 33.2476 23.9402C33.4063 23.7816 33.6215 23.6924 33.8459 23.6924H42.1194C42.3438 23.6924 42.559 23.7816 42.7177 23.9402C42.8763 24.099 42.9655 24.3142 42.9655 24.5385C42.9655 24.763 42.8763 24.9782 42.7177 25.1369C42.559 25.2956 42.3438 25.3847 42.1194 25.3847Z" fill="#E0E2E5"/>
<path d="M23.6921 14.3848L25.3844 34.6923V36.3847H35.5382V34.6923L37.2305 14.3848H23.6921Z" fill="#93573D"/>
<path d="M15.2307 14.3848V13.5387H11.8461V16.0772H8.46149V24.5385H11.8461H15.2307V23.6924H18.6153V14.3848H15.2307Z" fill="#FDD14B"/>
<path d="M11.8461 27.0771C11.6216 27.0771 11.4064 26.9879 11.2478 26.8293C11.089 26.6705 10.9999 26.4553 10.9999 26.231V16.9233C10.9999 16.6988 11.089 16.4836 11.2478 16.325C11.4064 16.1662 11.6216 16.0772 11.8461 16.0772C12.0705 16.0772 12.2857 16.1662 12.4444 16.325C12.6031 16.4836 12.6923 16.6988 12.6923 16.9233V26.231C12.6923 26.4553 12.6031 26.6705 12.4444 26.8293C12.2857 26.9879 12.0705 27.0771 11.8461 27.0771Z" fill="#E4BC43"/>
<path d="M15.3517 28.7693C15.1287 28.7693 14.9147 28.6813 14.7562 28.5243C14.5978 28.3674 14.5077 28.1542 14.5055 27.9311L14.3846 15.239C14.3825 15.0145 14.4695 14.7985 14.6266 14.6383C14.7839 14.4781 14.9982 14.3869 15.2226 14.3847C15.4471 14.3826 15.6632 14.4698 15.8233 14.6269C15.9835 14.7841 16.0747 14.9985 16.0769 15.2229L16.1977 27.9151C16.1999 28.1395 16.1128 28.3555 15.9557 28.5157C15.7986 28.6759 15.5843 28.7671 15.3598 28.7693H15.3517Z" fill="#E4BC43"/>
<path d="M7.61536 22.8464L9.3077 34.6923V36.3847H19.4615V34.6923V22.8464H7.61536Z" fill="#E74444"/>
<path d="M47.3843 25.3847H45.692C45.4675 25.3847 45.2523 25.2956 45.0937 25.1369C44.9349 24.9782 44.8458 24.763 44.8458 24.5385C44.8458 24.3142 44.9349 24.099 45.0937 23.9402C45.2523 23.7816 45.4675 23.6924 45.692 23.6924H47.3843C47.6087 23.6924 47.8239 23.7816 47.9826 23.9402C48.1413 24.099 48.2304 24.3142 48.2304 24.5385C48.2304 24.763 48.1413 24.9782 47.9826 25.1369C47.8239 25.2956 47.6087 25.3847 47.3843 25.3847Z" fill="#E0E2E5"/>
<path d="M37.2305 14.3848L36.9481 17.7694H23.9745L23.6921 14.3848H37.2305Z" fill="#A4D4F4"/>
<path d="M22.0487 9.30788C21.8955 9.30778 21.7453 9.26606 21.614 9.18734C21.4828 9.10862 21.3753 8.9957 21.3031 8.86061C21.231 8.72563 21.1968 8.5735 21.2042 8.42057C21.2116 8.26763 21.2604 8.11962 21.3454 7.99225L22.1493 6.78584C22.2692 6.60593 22.3157 6.3868 22.2792 6.1737C22.2427 5.9605 22.1259 5.76945 21.9529 5.63969L21.1298 5.02204C20.6109 4.63257 20.2609 4.05928 20.1515 3.41985C20.0421 2.7804 20.1816 2.12335 20.5413 1.58352L21.3452 0.377022C21.4069 0.28457 21.4861 0.205155 21.5784 0.14333C21.6707 0.0814949 21.7743 0.0384631 21.8833 0.0166713C21.9923 -0.00512042 22.1044 -0.00523118 22.2134 0.01634C22.3224 0.0379011 22.4261 0.0807329 22.5186 0.142378C22.6111 0.204022 22.6905 0.283267 22.7524 0.375598C22.8141 0.46793 22.8572 0.571533 22.879 0.680502C22.9008 0.789471 22.9009 0.901659 22.8793 1.01067C22.8578 1.11968 22.8149 1.22337 22.7533 1.31582L21.9491 2.52222C21.8291 2.70218 21.7827 2.92124 21.8192 3.13442C21.8557 3.34758 21.9725 3.53867 22.1455 3.66843L22.9687 4.28601C23.4876 4.67544 23.8377 5.24868 23.9472 5.88819C24.0569 6.5276 23.9175 7.18477 23.5577 7.7247L22.7539 8.93111C22.6765 9.04724 22.5717 9.14241 22.4486 9.2082C22.3256 9.27389 22.1882 9.30818 22.0487 9.30788Z" fill="#E0E2E5"/>
<path d="M15.2795 9.30799C15.1264 9.30789 14.9761 9.26627 14.8449 9.18745C14.7136 9.10872 14.6061 8.9958 14.5339 8.86072C14.4618 8.72574 14.4276 8.57361 14.435 8.42077C14.4424 8.26784 14.4913 8.11972 14.5762 7.99236L15.3801 6.78594C15.5 6.60603 15.5466 6.38701 15.5101 6.17381C15.4736 5.9606 15.3567 5.76956 15.1837 5.63979L14.3606 5.02214C13.8417 4.63271 13.4917 4.0594 13.3823 3.41997C13.2729 2.78054 13.4124 2.12348 13.7721 1.58366L14.576 0.377157C14.7005 0.190428 14.8941 0.0608006 15.1141 0.0167959C15.3342 -0.0272088 15.5627 0.0180093 15.7494 0.142502C15.9362 0.266995 16.0658 0.460564 16.1099 0.680637C16.1538 0.900701 16.1086 1.12923 15.9841 1.31596L15.1799 2.52235C15.06 2.70232 15.0136 2.92138 15.0501 3.13454C15.0866 3.34772 15.2033 3.5388 15.3764 3.66856L16.1995 4.28615C16.7185 4.67557 17.0686 5.24888 17.1781 5.8883C17.2877 6.52771 17.1483 7.18487 16.7886 7.7248L15.9847 8.93132C15.9074 9.04735 15.8025 9.14252 15.6794 9.2083C15.5564 9.27399 15.419 9.30829 15.2795 9.30799Z" fill="#E0E2E5"/>
<path d="M28.7238 9.30789C28.5707 9.30778 28.4204 9.26617 28.2892 9.18734C28.1579 9.10862 28.0504 8.9957 27.9783 8.86062C27.9061 8.72564 27.8719 8.5735 27.8793 8.42057C27.8867 8.26764 27.9356 8.11962 28.0205 7.99226L28.8249 6.78584C28.9448 6.60593 28.9914 6.38681 28.9549 6.1737C28.9183 5.9605 28.8015 5.76946 28.6285 5.63969L27.8053 5.02214C27.2864 4.63275 26.9362 4.05949 26.8267 3.42004C26.7172 2.78059 26.8566 2.12346 27.2162 1.58354L28.0201 0.377044C28.1446 0.190235 28.3382 0.0605272 28.5583 0.0164623C28.6673 -0.00534949 28.7796 -0.00548996 28.8886 0.0160611C28.9977 0.0376122 29.1014 0.0804335 29.1938 0.142078C29.2864 0.203723 29.3658 0.282978 29.4277 0.375329C29.4896 0.467671 29.5326 0.571305 29.5545 0.680304C29.5763 0.789293 29.5764 0.901521 29.5549 1.01057C29.5333 1.11961 29.4905 1.22334 29.4288 1.31584L28.625 2.52224C28.5051 2.70219 28.4586 2.92124 28.4951 3.13441C28.5316 3.34758 28.6483 3.53867 28.8213 3.66845L29.6445 4.28603C30.1635 4.67543 30.5136 5.24868 30.6232 5.88819C30.7327 6.5276 30.5933 7.18477 30.2336 7.7247L29.4297 8.93122C29.3523 9.04735 29.2473 9.14262 29.1241 9.2083C29.001 9.27409 28.8634 9.30829 28.7238 9.30789Z" fill="#E0E2E5"/>
<path d="M49.9228 20.3079H40.6151C40.3907 20.3079 40.1755 20.2187 40.0168 20.06C39.8581 19.9013 39.769 19.6861 39.769 19.4618C39.769 19.2373 39.8581 19.0221 40.0168 18.8634C40.1755 18.7047 40.3907 18.6156 40.6151 18.6156H49.9228C50.1472 18.6156 50.3624 18.7047 50.5211 18.8634C50.6798 19.0221 50.7689 19.2373 50.7689 19.4618C50.7689 19.6861 50.6798 19.9013 50.5211 20.06C50.3624 20.2187 50.1472 20.3079 49.9228 20.3079Z" fill="#E0E2E5"/>
<path d="M43.9997 30.4616H38.9228C38.6984 30.4616 38.4832 30.3725 38.3245 30.2138C38.1658 30.0551 38.0766 29.8399 38.0766 29.6155C38.0766 29.3911 38.1658 29.1759 38.3245 29.0171C38.4832 28.8585 38.6984 28.7693 38.9228 28.7693H43.9997C44.2241 28.7693 44.4393 28.8585 44.598 29.0171C44.7567 29.1759 44.8458 29.3911 44.8458 29.6155C44.8458 29.8399 44.7567 30.0551 44.598 30.2138C44.4393 30.3725 44.2241 30.4616 43.9997 30.4616Z" fill="#E0E2E5"/>
<path d="M49.9228 44H0.846148C0.621732 44 0.406512 43.9109 0.247832 43.7522C0.0891427 43.5935 0 43.3782 0 43.1539C0 42.9295 0.0891427 42.7143 0.247832 42.5555C0.406512 42.3969 0.621732 42.3077 0.846148 42.3077H49.9228C50.1471 42.3077 50.3623 42.3969 50.5211 42.5555C50.6797 42.7143 50.7689 42.9295 50.7689 43.1539C50.7689 43.3782 50.6797 43.5935 50.5211 43.7522C50.3623 43.9109 50.1471 44 49.9228 44Z" fill="#C2C5C6"/>
<path d="M0.84613 34.6923H43.1536V36.3847C43.1536 36.8335 42.9753 37.2639 42.6579 37.5813C42.3405 37.8987 41.9101 38.0769 41.4612 38.0769H2.53843C2.0896 38.0769 1.65915 37.8987 1.3418 37.5813C1.02443 37.2639 0.84613 36.8335 0.84613 36.3847V34.6923Z" fill="#FDD14B"/>
<path d="M34.692 43.1539C37.496 43.1539 39.769 40.8809 39.769 38.0769C39.769 35.2731 37.496 33.0001 34.692 33.0001C31.8882 33.0001 29.6152 35.2731 29.6152 38.0769C29.6152 40.8809 31.8882 43.1539 34.692 43.1539Z" fill="#6A7073"/>
<path d="M34.692 39.7693C35.6267 39.7693 36.3844 39.0116 36.3844 38.0769C36.3844 37.1424 35.6267 36.3847 34.692 36.3847C33.7575 36.3847 32.9998 37.1424 32.9998 38.0769C32.9998 39.0116 33.7575 39.7693 34.692 39.7693Z" fill="#99A2A7"/>
<path d="M9.30765 43.1539C12.1115 43.1539 14.3844 40.8809 14.3844 38.0769C14.3844 35.2731 12.1115 33.0001 9.30765 33.0001C6.50371 33.0001 4.23071 35.2731 4.23071 38.0769C4.23071 40.8809 6.50371 43.1539 9.30765 43.1539Z" fill="#6A7073"/>
<path d="M9.3077 39.7693C10.2423 39.7693 10.9999 39.0116 10.9999 38.0769C10.9999 37.1424 10.2423 36.3847 9.3077 36.3847C8.37305 36.3847 7.61536 37.1424 7.61536 38.0769C7.61536 39.0116 8.37305 39.7693 9.3077 39.7693Z" fill="#99A2A7"/>
<path d="M14.3845 31.3077H29.6152V33.0001C29.6152 33.4489 29.4369 33.8793 29.1195 34.1967C28.8021 34.5141 28.3717 34.6923 27.9228 34.6923H16.0769C15.628 34.6923 15.1976 34.5141 14.8802 34.1967C14.5628 33.8793 14.3845 33.4489 14.3845 33.0001V31.3077Z" fill="#EA8333"/>
<path d="M28.923 27.9231C29.7726 27.9231 30.4613 28.6808 30.4613 29.6155C30.4613 30.5502 29.7726 31.3077 28.923 31.3077H15.0768C14.2271 31.3077 13.5384 30.5502 13.5384 29.6155C13.5384 28.6808 14.2271 27.9231 15.0768 27.9231H28.923Z" fill="#794832"/>
<path d="M15.2307 24.5385H28.769V27.9231H15.2307V24.5385Z" fill="#FDD14B"/>
<path d="M31.3074 25.3847C31.3074 26.7867 30.1168 27.9232 28.6481 27.9232C28.2146 27.9265 27.7865 27.825 27.4005 27.6273C27.0147 27.4296 26.6822 27.1416 26.4315 26.7877C26.1786 27.139 25.8457 27.4252 25.4605 27.6226C25.0753 27.8199 24.6485 27.9228 24.2157 27.9228C23.7828 27.9228 23.3562 27.8199 22.9709 27.6226C22.5856 27.4252 22.2528 27.139 21.9998 26.7877C21.7469 27.139 21.4141 27.4252 21.0288 27.6226C20.6435 27.8199 20.2169 27.9228 19.784 27.9228C19.3511 27.9228 18.9244 27.8199 18.5391 27.6226C18.1539 27.4252 17.8211 27.139 17.5682 26.7877C17.3175 27.1416 16.985 27.4296 16.599 27.6273C16.2131 27.825 15.7851 27.9265 15.3516 27.9232C13.8828 27.9232 12.6923 26.7867 12.6923 25.3847C12.6923 25.1603 12.7813 24.9451 12.9401 24.7864C13.0987 24.6277 13.3139 24.5385 13.5384 24.5385H30.4613C30.6858 24.5385 30.901 24.6277 31.0596 24.7864C31.2184 24.9451 31.3074 25.1603 31.3074 25.3847Z" fill="#3BA673"/>
<path d="M29.6152 17.7694V11.0003C29.6151 10.8311 29.6659 10.6659 29.7606 10.5258C29.8555 10.3858 29.9901 10.2774 30.1471 10.2145L34.3778 8.52223C34.481 8.48101 34.5913 8.46046 34.7025 8.46186C34.8136 8.46316 34.9233 8.48643 35.0254 8.53015C35.1276 8.57398 35.22 8.63746 35.2976 8.71698C35.3753 8.79651 35.4364 8.89047 35.4777 8.99367C35.519 9.09686 35.5395 9.20717 35.5382 9.31829C35.5368 9.4294 35.5136 9.53911 35.4698 9.6413C35.426 9.74339 35.3626 9.83595 35.2831 9.91347C35.2035 9.99109 35.1095 10.0523 35.0063 10.0936L31.3075 11.5731V17.7694H29.6152Z" fill="#E74444"/>
<path d="M29.6152 14.3848H31.3074V17.7694H29.6152V14.3848Z" fill="#CE3536"/>
</svg>
