<?xml version="1.0" encoding="UTF-8" standalone="no"?>
<!-- Created with Inkscape (http://www.inkscape.org/) -->

<svg
   width="64pt"
   height="64pt"
   viewBox="0 0 22.577778 22.577778"
   version="1.1"
   id="svg831"
   inkscape:version="1.1.1 (3bf5ae0d25, 2021-09-20)"
   sodipodi:docname="Export - Unblash - 64px.svg"
   inkscape:export-filename="C:\Users\User\Desktop\CARLOS PROJECT\2. FEBRUARI 1\DONE\30 - Jackfruit.png"
   inkscape:export-xdpi="576"
   inkscape:export-ydpi="576"
   xmlns:inkscape="http://www.inkscape.org/namespaces/inkscape"
   xmlns:sodipodi="http://sodipodi.sourceforge.net/DTD/sodipodi-0.dtd"
   xmlns="http://www.w3.org/2000/svg"
   xmlns:svg="http://www.w3.org/2000/svg"
   xmlns:rdf="http://www.w3.org/1999/02/22-rdf-syntax-ns#"
   xmlns:cc="http://creativecommons.org/ns#"
   xmlns:dc="http://purl.org/dc/elements/1.1/">
  <defs
     id="defs825">
    <pattern
       id="EMFhbasepattern"
       patternUnits="userSpaceOnUse"
       width="6"
       height="6"
       x="0"
       y="0" />
    <pattern
       id="EMFhbasepattern-9"
       patternUnits="userSpaceOnUse"
       width="6"
       height="6"
       x="0"
       y="0" />
    <pattern
       id="EMFhbasepattern-0"
       patternUnits="userSpaceOnUse"
       width="6"
       height="6"
       x="0"
       y="0" />
    <pattern
       id="EMFhbasepattern-7"
       patternUnits="userSpaceOnUse"
       width="6"
       height="6"
       x="0"
       y="0" />
    <pattern
       id="EMFhbasepattern-2"
       patternUnits="userSpaceOnUse"
       width="6"
       height="6"
       x="0"
       y="0" />
    <pattern
       id="EMFhbasepattern-98"
       patternUnits="userSpaceOnUse"
       width="6"
       height="6"
       x="0"
       y="0" />
    <pattern
       id="EMFhbasepattern-6"
       patternUnits="userSpaceOnUse"
       width="6"
       height="6"
       x="0"
       y="0" />
    <pattern
       id="EMFhbasepattern-01"
       patternUnits="userSpaceOnUse"
       width="6"
       height="6"
       x="0"
       y="0" />
    <pattern
       id="EMFhbasepattern-07"
       patternUnits="userSpaceOnUse"
       width="6"
       height="6"
       x="0"
       y="0" />
    <pattern
       id="EMFhbasepattern-8"
       patternUnits="userSpaceOnUse"
       width="6"
       height="6"
       x="0"
       y="0" />
    <pattern
       id="EMFhbasepattern-4"
       patternUnits="userSpaceOnUse"
       width="6"
       height="6"
       x="0"
       y="0" />
    <pattern
       id="EMFhbasepattern-40"
       patternUnits="userSpaceOnUse"
       width="6"
       height="6"
       x="0"
       y="0" />
    <pattern
       id="EMFhbasepattern-08"
       patternUnits="userSpaceOnUse"
       width="6"
       height="6"
       x="0"
       y="0" />
    <pattern
       id="EMFhbasepattern-04"
       patternUnits="userSpaceOnUse"
       width="6"
       height="6"
       x="0"
       y="0" />
    <pattern
       id="EMFhbasepattern-014"
       patternUnits="userSpaceOnUse"
       width="6"
       height="6"
       x="0"
       y="0" />
    <pattern
       id="EMFhbasepattern-27"
       patternUnits="userSpaceOnUse"
       width="6"
       height="6"
       x="0"
       y="0" />
    <pattern
       id="EMFhbasepattern-09"
       patternUnits="userSpaceOnUse"
       width="6"
       height="6"
       x="0"
       y="0" />
    <pattern
       id="EMFhbasepattern-5"
       patternUnits="userSpaceOnUse"
       width="6"
       height="6"
       x="0"
       y="0" />
    <pattern
       id="EMFhbasepattern-018"
       patternUnits="userSpaceOnUse"
       width="6"
       height="6"
       x="0"
       y="0" />
  </defs>
  <sodipodi:namedview
     id="base"
     pagecolor="#ffffff"
     bordercolor="#666666"
     borderopacity="1.0"
     inkscape:pageopacity="0.0"
     inkscape:pageshadow="2"
     inkscape:zoom="9.1757813"
     inkscape:cx="38.52533"
     inkscape:cy="42.666666"
     inkscape:document-units="pt"
     inkscape:current-layer="svg831"
     showgrid="false"
     units="pt"
     inkscape:window-width="1920"
     inkscape:window-height="1001"
     inkscape:window-x="-9"
     inkscape:window-y="41"
     inkscape:window-maximized="1"
     inkscape:pagecheckerboard="true"
     inkscape:showpageshadow="false"
     inkscape:object-paths="true"
     inkscape:snap-intersection-paths="true"
     inkscape:snap-smooth-nodes="true"
     inkscape:snap-midpoints="true"
     showguides="true"
     inkscape:snap-bbox="true"
     inkscape:bbox-nodes="true"
     inkscape:snap-nodes="false"
     inkscape:snap-global="true">
    <inkscape:grid
       type="xygrid"
       id="grid1378" />
    <sodipodi:guide
       position="0.97013831,21.607643"
       orientation="78.000048,0"
       id="guide1380"
       inkscape:locked="false" />
    <sodipodi:guide
       position="0.97013831,0.97013129"
       orientation="0,78.000005"
       id="guide1382"
       inkscape:locked="false" />
    <sodipodi:guide
       position="21.607639,0.97013129"
       orientation="-78.000048,0"
       id="guide1384"
       inkscape:locked="false" />
    <sodipodi:guide
       position="21.607639,21.607643"
       orientation="0,-78.000005"
       id="guide1386"
       inkscape:locked="false" />
  </sodipodi:namedview>
  <metadata
     id="metadata828">
    <rdf:RDF>
      <cc:Work
         rdf:about="">
        <dc:format>image/svg+xml</dc:format>
        <dc:type
           rdf:resource="http://purl.org/dc/dcmitype/StillImage" />
      </cc:Work>
    </rdf:RDF>
  </metadata>
  <g
     inkscape:label="Icon"
     inkscape:groupmode="layer"
     id="layer1"
     transform="translate(0,-274.42223)" />
  <g
     id="g2621"
     style="display:inline;stroke-width:0.795662"
     transform="matrix(1.2568157,0,0,1.2568157,77.318437,-313.01275)">
    <g
       id="g18258"
       style="stroke-width:0.795662">
      <path
         style="color:#000000;fill:#349951;stroke-width:0.795662;stroke-linecap:round;stroke-linejoin:round;-inkscape-stroke:none"
         d="m -48.339844,254.88281 c -0.201105,0.60821 -0.398837,1.1797 -0.701172,1.57617 -0.302334,0.39648 -0.682788,0.63967 -1.382812,0.64258 -0.289508,0.002 -0.365903,0.40084 -0.09766,0.50977 l 2.152343,0.87109 c 0.108668,0.0442 0.233489,0.0116 0.306641,-0.0801 0.452995,-0.57399 0.711298,-1.09555 0.740234,-1.66797 0.02894,-0.57241 -0.165124,-1.16033 -0.529296,-1.88867 -0.04824,-0.0955 -0.149202,-0.15249 -0.256112,-0.14463 -0.10691,0.008 -0.198755,0.0796 -0.232166,0.18176 z"
         id="path87030"
         sodipodi:nodetypes="csccccsccc" />
      <path
         style="color:#000000;fill:#349951;stroke-width:0.795662;stroke-linecap:round;stroke-linejoin:round;-inkscape-stroke:none"
         d="m -46.664062,257.40039 c -0.573276,0.0313 -1.095645,0.28978 -1.664063,0.73438 a 0.26460996,0.26460996 0 0 0 -0.08398,0.30664 l 0.86914,2.15039 a 0.26460996,0.26460996 0 0 0 0.509766,-0.0996 c 0.0029,-0.70003 0.246104,-1.07853 0.642578,-1.38086 0.396474,-0.30234 0.969915,-0.50007 1.578125,-0.70117 a 0.26460996,0.26460996 0 0 0 0.03516,-0.48829 c -0.724611,-0.3623 -1.313443,-0.55274 -1.886718,-0.52148 z"
         id="path87222" />
      <path
         id="path277512"
         style="color:#000000;fill:#26783f;fill-opacity:1;stroke-width:0.795662;stroke-linecap:round;stroke-linejoin:round;-inkscape-stroke:none"
         d="m -46.66382,257.40024 c -0.573276,0.0313 -1.096079,0.28972 -1.664497,0.73432 -0.09318,0.0722 -0.127315,0.19741 -0.08372,0.30696 l 0.08837,0.21859 c 0.566605,-0.44236 1.088144,-0.69949 1.659845,-0.7307 0.556217,-0.0303 1.127313,0.14885 1.822627,0.49041 0.295585,-0.0872 0.251509,-0.4165 0.06408,-0.49834 -0.615127,-0.32745 -1.170803,-0.52168 -1.886705,-0.52124 z"
         sodipodi:nodetypes="cccccccc" />
      <path
         style="color:#000000;fill:#349951;stroke-width:0.795662;stroke-linecap:round;stroke-linejoin:round;-inkscape-stroke:none"
         d="m -60.224609,253.75195 a 0.26460996,0.26460996 0 0 0 -0.203125,0.24024 c -0.08726,1.36639 0.10985,2.88209 1.050781,3.95117 a 0.26460996,0.26460996 0 0 0 0.07813,0.0606 l 0.943359,0.48437 a 0.26460996,0.26460996 0 0 0 0.382813,-0.20898 l 0.220703,-2.19336 a 0.26460996,0.26460996 0 0 0 -0.160156,-0.26953 l -0.890625,-0.38086 c -0.422671,-0.45275 -0.782728,-0.95394 -1.132813,-1.5586 a 0.26460996,0.26460996 0 0 0 -0.289062,-0.125 z"
         id="path85170" />
      <path
         style="color:#000000;fill:#349951;stroke-width:0.795662;stroke-linecap:round;stroke-linejoin:round;-inkscape-stroke:none"
         d="m -58.21875,251.20117 a 0.26460996,0.26460996 0 0 0 -0.263672,0.17969 c -0.283709,0.84742 -0.795935,2.06065 -0.353515,3.40234 a 0.26460996,0.26460996 0 0 0 0.03906,0.0762 l 0.568359,0.75586 a 0.26460996,0.26460996 0 0 0 0.416016,0.01 l 1.125,-1.37109 a 0.26460996,0.26460996 0 0 0 0,-0.33399 l -0.578125,-0.70508 c -0.305252,-0.55943 -0.550857,-1.15614 -0.708984,-1.8125 a 0.26460996,0.26460996 0 0 0 -0.244141,-0.20117 z"
         id="path84978" />
      <path
         style="color:#000000;fill:#349951;stroke-width:0.795662;stroke-linecap:round;stroke-linejoin:round;-inkscape-stroke:none"
         d="m -52.367187,251.20117 a 0.26460996,0.26460996 0 0 0 -0.244141,0.20117 c -0.156771,0.65073 -0.401535,1.2416 -0.703125,1.79688 l -0.472656,0.44922 a 0.26460996,0.26460996 0 0 0 -0.05273,0.3125 l 0.740235,1.45117 a 0.26460996,0.26460996 0 0 0 0.384765,0.0996 l 0.863282,-0.59375 A 0.26460996,0.26460996 0 0 0 -51.75,254.7832 c 0.442421,-1.34169 -0.06981,-2.55492 -0.353516,-3.40234 a 0.26460996,0.26460996 0 0 0 -0.263671,-0.17969 z"
         id="path85362" />
      <path
         id="path262892"
         style="color:#000000;fill:#26783f;fill-opacity:1;stroke-width:0.795662;stroke-linecap:round;stroke-linejoin:round;-inkscape-stroke:none"
         d="m -53.314577,253.19905 -0.472321,0.44958 c -0.08473,0.0809 -0.106171,0.20789 -0.05271,0.31213 l 0.740006,1.45159 c 0.07212,0.14244 0.253012,0.18905 0.384989,0.0992 l 0.144177,-0.0992 -0.740005,-1.45159 c -0.05346,-0.10424 -0.03202,-0.23123 0.05271,-0.31213 l 0.472321,-0.44958 c 0.297892,-0.54847 0.540142,-1.13172 0.697116,-1.77302 -0.005,-0.0148 -0.0101,-0.0304 -0.01499,-0.045 -0.124033,-0.29847 -0.463777,-0.20768 -0.507975,0.0212 -0.162988,0.66889 -0.432042,1.29281 -0.703318,1.79682 z"
         sodipodi:nodetypes="ccccccccccccc" />
      <path
         id="path259290"
         style="color:#000000;fill:#26783f;fill-opacity:1;stroke-width:0.795662;stroke-linecap:round;stroke-linejoin:round;-inkscape-stroke:none"
         d="m -58.847574,257.94374 c -0.847845,-1.21525 -1.192947,-2.73251 -1.044397,-3.99248 -0.01447,-0.0246 -0.02898,-0.049 -0.04341,-0.0739 -0.134668,-0.21051 -0.462128,-0.16714 -0.492457,0.1152 -0.06428,1.96026 0.287319,3.21476 1.129127,4.01168 z"
         sodipodi:nodetypes="cccccc" />
      <path
         id="path260974"
         style="color:#000000;fill:#26783f;fill-opacity:1;stroke-width:0.795662;stroke-linecap:round;stroke-linejoin:round;-inkscape-stroke:none"
         d="m -58.306516,254.78362 c -0.4347,-1.31828 0.05172,-2.5118 0.337963,-3.3569 -0.02914,-0.15902 -0.158983,-0.22536 -0.250732,-0.22536 -0.117564,0 -0.225167,0.0676 -0.262936,0.17971 -0.283707,0.84742 -0.795885,2.06069 -0.353465,3.40238 z"
         sodipodi:nodetypes="cccccc" />
      <path
         style="color:#000000;fill:#cf113f;stroke-width:0.795662;stroke-linecap:round;stroke-linejoin:round;-inkscape-stroke:none"
         d="m -52.322649,260.76737 c 1.19444,-1.24762 1.788454,-3.23336 0.803277,-5.60304 v -5.1e-4 -5.2e-4 -5.2e-4 -5.1e-4 c -0.296624,-0.70946 -0.69002,-1.31916 -1.310516,-1.9203 -0.492934,-0.49705 -0.590047,-0.93731 -0.52348,-1.43144 0.06657,-0.49414 0.331218,-1.039 0.619082,-1.61127 0.122957,-0.31382 -0.130059,-0.43697 -0.439734,-0.32817 -0.983533,0.34413 -1.604397,0.79034 -1.935282,1.49603 -0.04484,0.0956 -0.08423,0.19524 -0.119372,0.29869 -0.03343,-0.0985 -0.07096,-0.19329 -0.113173,-0.28474 -0.332536,-0.72034 -0.962755,-1.17359 -1.970421,-1.52187 -0.101311,-0.0513 -0.193482,-0.0234 -0.293004,-0.0154 -0.130635,0.0657 -0.183175,0.22497 -0.117305,0.35553 0.287864,0.57227 0.552516,1.11713 0.619082,1.61127 0.06601,0.48999 -0.02937,0.92761 -0.511595,1.41955 -1.04996,0.91578 -1.716691,2.40428 -1.716691,4.07676 0,1.82414 0.792469,3.42954 2.011246,4.31033 1.641562,0.95958 4.009568,0.13816 4.997886,-0.84987 z"
         id="path86167"
         sodipodi:nodetypes="cccccccsccccccccscscc" />
      <path
         id="path89861"
         style="fill:#b21134;fill-opacity:1;stroke-width:0.795662;stroke-linecap:round;stroke-linejoin:round"
         d="m -53.222592,255.3183 c -1.041736,0.91707 -2.078062,2.16512 -2.236558,3.74809 -0.670792,0.88257 -1.089855,1.89394 -1.220078,2.8944 2.747058,1.07495 6.857066,-1.8929 5.321639,-6.36809 -0.184126,0.13028 -0.367774,0.27586 -0.544671,0.44028 0.0302,-0.93433 -0.701687,-1.2105 -1.320332,-0.71468 z"
         sodipodi:nodetypes="cccccc" />
      <path
         style="color:#000000;fill:#349951;stroke-width:0.795662;stroke-linecap:round;stroke-linejoin:round;-inkscape-stroke:none"
         d="m -52.851562,255.73637 c -1.05177,0.9255 -2.04423,2.14549 -2.087891,3.62109 -0.0013,0.0525 0.01293,0.10412 0.04102,0.14844 l 0.248046,0.39453 c 0.08183,0.13018 0.257014,0.16344 0.38086,0.0723 l 1.644531,-1.20508 c 0.08961,-0.0657 0.128617,-0.18039 0.09766,-0.28711 l -0.160156,-0.55469 c 0.02133,-0.62483 0.09011,-1.26559 0.265625,-1.92383 0.05234,-0.30886 -0.25417,-0.38967 -0.429695,-0.26565 z"
         id="path86646"
         sodipodi:nodetypes="cccccccccc" />
      <path
         id="path267558"
         style="color:#000000;fill:#26783f;fill-opacity:1;stroke-width:0.795662;stroke-linecap:round;stroke-linejoin:round;-inkscape-stroke:none"
         d="m -54.410116,259.35729 c 0.04213,-1.42389 0.967814,-2.60933 1.977658,-3.52227 -0.09665,-0.21239 -0.303398,-0.18954 -0.419099,-0.0987 -1.051769,0.9255 -2.044065,2.14537 -2.087726,3.62097 z"
         sodipodi:nodetypes="ccccc" />
      <path
         style="color:#000000;fill:#349951;stroke-width:0.795662;stroke-linecap:round;stroke-linejoin:round;-inkscape-stroke:none"
         d="m -49.408203,255.25781 a 0.26460996,0.26460996 0 0 0 -0.220703,0.008 c -0.799845,0.3986 -2.018417,0.89275 -2.654297,2.1543 a 0.26460996,0.26460996 0 0 0 0.261719,0.38281 l 1.724609,-0.17773 a 0.26460996,0.26460996 0 0 0 0.226563,-0.18945 c 0.180032,-0.61635 0.430158,-1.2146 0.785156,-1.79493 a 0.26460996,0.26460996 0 0 0 -0.123047,-0.38281 z"
         id="path86838" />
      <path
         style="color:#000000;fill:#349951;stroke-width:0.795662;stroke-linecap:round;stroke-linejoin:round;-inkscape-stroke:none"
         d="m -45.945312,262.47852 c -0.690854,0.18421 -1.313296,0.29089 -1.947266,0.30859 a 0.26460996,0.26460996 0 0 0 -0.197266,0.0957 l -1.347656,1.64258 a 0.26460996,0.26460996 0 0 0 0.220703,0.43164 c 1.42129,-0.0906 2.632623,-1.02093 3.53711,-2.04883 a 0.26460996,0.26460996 0 0 0 -0.265625,-0.42968 z"
         id="path87606" />
      <path
         style="color:#000000;fill:#349951;stroke-width:0.795662;stroke-linecap:round;stroke-linejoin:round;-inkscape-stroke:none"
         d="m -45.583984,259.34175 c -0.580329,0.355 -1.178566,0.60512 -1.794922,0.78515 -0.103344,0.03 -0.178244,0.11955 -0.189453,0.22657 l -0.177735,1.7246 c -0.02019,0.20764 0.196653,0.35589 0.382813,0.26172 1.261555,-0.63588 1.755693,-1.85445 2.154297,-2.65429 0.0055,-0.35542 -0.101024,-0.38903 -0.375,-0.34375 z"
         id="path87414"
         sodipodi:nodetypes="ccccccc" />
      <path
         id="path257078"
         style="color:#000000;fill:#b21134;fill-opacity:1;stroke-width:0.795662;stroke-linecap:round;stroke-linejoin:round;-inkscape-stroke:none"
         d="m -57.722576,250.19922 c 0.287864,0.57227 0.552517,1.11713 0.619083,1.61127 0.06601,0.48999 -0.02937,0.92761 -0.511596,1.41955 -1.049962,0.91578 -1.71669,2.40428 -1.71669,4.07676 0,2.49082 1.481093,5.02379 4.122712,4.86526 -2.384787,-0.28454 -3.593546,-2.29991 -3.593546,-4.86526 0,-1.67248 0.666729,-3.16098 1.716691,-4.07676 0.482224,-0.49194 0.577607,-0.92956 0.511596,-1.41955 -0.06657,-0.49414 -0.331219,-1.039 -0.619083,-1.61127 -0.04566,-0.0933 -0.03252,-0.20464 0.03359,-0.28474 -0.573175,-0.2685 -0.633306,0.13223 -0.562757,0.28474 z"
         sodipodi:nodetypes="cscccccsccc" />
      <path
         id="path269164"
         style="color:#000000;fill:#26783f;fill-opacity:1;stroke-width:0.795662;stroke-linecap:round;stroke-linejoin:round;-inkscape-stroke:none"
         d="m -49.629013,255.26558 c -0.799844,0.3986 -2.018221,0.89284 -2.654102,2.15439 -0.09422,0.18609 0.05387,0.40295 0.261482,0.38292 l 0.366903,-0.0377 c -0.118062,-0.0716 -0.161263,-0.22187 -0.09922,-0.3452 0.587914,-1.16639 1.673352,-1.67598 2.465998,-2.06137 -0.07759,-0.1314 -0.237305,-0.14435 -0.341061,-0.093 z"
         sodipodi:nodetypes="ccccccc" />
      <path
         id="path272612"
         style="color:#000000;fill:#26783f;fill-opacity:1;stroke-width:0.795662;stroke-linecap:round;stroke-linejoin:round;-inkscape-stroke:none"
         d="m -49.992301,257.61093 c -0.267371,-0.10931 -0.191169,-0.50684 0.09767,-0.50953 0.700022,-0.003 1.080527,-0.24637 1.382861,-0.64285 0.297751,-0.39046 0.493966,-0.95088 0.691946,-1.54875 -0.01055,-0.0215 -0.02067,-0.0429 -0.03152,-0.0646 -0.04841,-0.0955 -0.149577,-0.15239 -0.256423,-0.14423 -0.106846,0.008 -0.19848,0.0798 -0.231919,0.1817 -0.201104,0.60821 -0.398915,1.17966 -0.701249,1.57613 -0.302334,0.39648 -0.682839,0.63994 -1.382861,0.64285 -0.288839,0.003 -0.365041,0.40022 -0.09767,0.50953 z"
         sodipodi:nodetypes="ccsccccsccc" />
      <path
         id="path282254"
         style="color:#000000;fill:#26783f;fill-opacity:1;stroke-width:0.795662;stroke-linecap:round;stroke-linejoin:round;-inkscape-stroke:none"
         d="m -45.945514,262.47832 c -0.690856,0.18421 -1.313199,0.2908 -1.947169,0.3085 -0.07653,0.002 -0.148529,0.0367 -0.197403,0.0956 l -1.347206,1.64279 c -0.109869,0.13548 -0.06088,0.33834 0.0987,0.40876 l 1.248503,-1.52239 c 0.04887,-0.0589 0.120871,-0.0938 0.197403,-0.0956 0.63397,-0.0177 1.256313,-0.1243 1.947169,-0.30851 0.05524,-0.0142 0.11361,-0.0102 0.166396,0.0114 0.03352,-0.0369 0.0665,-0.0739 0.09922,-0.1111 0.192508,-0.22138 -0.05505,-0.49932 -0.265613,-0.42945 z"
         sodipodi:nodetypes="ccccccccccc" />
      <path
         id="path284135"
         style="color:#000000;fill:#26783f;fill-opacity:1;stroke-width:0.795662;stroke-linecap:round;stroke-linejoin:round;-inkscape-stroke:none"
         d="m -45.583783,259.34185 c -0.580329,0.355 -1.178883,0.60493 -1.795238,0.78496 -0.103311,0.0301 -0.178087,0.11982 -0.189137,0.22686 l -0.177766,1.72444 c -0.0052,0.0567 0.008,0.11365 0.03773,0.16227 l 0.140041,-1.35754 c 0.01105,-0.10704 0.08583,-0.19673 0.189137,-0.22686 0.616355,-0.18003 1.214909,-0.42997 1.795238,-0.78497 0.114385,-0.0742 0.202642,-0.0409 0.282153,0.003 0.03143,-0.0646 0.06245,-0.1278 0.0925,-0.18811 0.136504,-0.28846 -0.206436,-0.47438 -0.374658,-0.34405 z"
         sodipodi:nodetypes="ccccccccccc" />
      <path
         style="color:#000000;fill:#cf113f;stroke-width:0.795662;stroke-linecap:round;stroke-linejoin:round;-inkscape-stroke:none"
         d="m -51.146484,257.10742 c -1.16578,0.12278 -2.373433,0.6918 -3.34375,1.66211 -1.940643,1.94064 -2.270458,4.8233 -0.652344,6.44141 1.618113,1.61811 4.502717,1.28829 6.443359,-0.65235 1.940635,-1.94064 2.270455,-4.82328 0.652344,-6.4414 -0.809057,-0.80906 -1.933829,-1.13255 -3.099609,-1.00977 z"
         id="path87798" />
      <path
         style="color:#000000;fill:#f0517a;stroke-width:0.795662;stroke-linecap:round;stroke-linejoin:round;-inkscape-stroke:none"
         d="m -51.273437,258.28516 c -0.86482,0.0906 -1.759056,0.511 -2.47461,1.22656 -1.431116,1.43111 -1.681671,3.57028 -0.472656,4.7793 1.209014,1.20902 3.348181,0.95651 4.779297,-0.47461 1.431108,-1.43112 1.681669,-3.57028 0.472656,-4.7793 -0.604507,-0.60451 -1.439868,-0.84259 -2.304687,-0.75195 z"
         id="path88104" />
      <path
         style="color:#000000;fill:#ececec;fill-opacity:1;stroke-width:0.795662;stroke-linecap:round;stroke-linejoin:round;-inkscape-stroke:none"
         d="m -51.242187,258.81445 c 0.729475,-0.0797 1.421325,0.1186 1.90039,0.59766 0.958131,0.95814 0.793434,2.7632 -0.474609,4.03125 -1.26805,1.26805 -3.07312,1.43079 -4.03125,0.47266 -0.958129,-0.95813 -0.79344,-2.76321 0.474609,-4.03125 0.634021,-0.63403 1.401384,-0.99066 2.13086,-1.07032 z"
         id="path88110" />
      <path
         id="path40230"
         style="color:#000000;fill:#000000;fill-opacity:1;stroke-width:3.00723;stroke-linecap:round;stroke-linejoin:round;-inkscape-stroke:none"
         d="m -193.20508,-77.714844 c -0.39205,0.388887 -0.39467,1.02194 -0.006,1.414063 0.39117,0.394344 1.02875,0.394344 1.41992,0 0.38881,-0.392123 0.38619,-1.025176 -0.006,-1.414063 -0.40519,-0.384442 -1.05481,-0.338419 -1.40792,0 z m -1.4202,5.65625 c -0.3982,-0.382548 -1.02483,-0.350862 -1.40792,0 -0.39205,0.388887 -0.39467,1.02194 -0.006,1.414063 0.39117,0.394344 1.02875,0.394344 1.41992,0 0.38935,-0.391586 0.3876,-1.024636 -0.004,-1.414063 z m -7.06222,0.002 c -0.39335,0.389107 -0.39597,1.023667 -0.006,1.416016 0.39117,0.394344 1.02875,0.394344 1.41992,0 0.39011,-0.392349 0.38749,-1.026909 -0.006,-1.416016 -0.4505,-0.412116 -1.04894,-0.332863 -1.4082,0 z m 12.72461,1.41211 c -0.39205,0.388887 -0.39467,1.021939 -0.006,1.414062 0.39117,0.394344 1.02875,0.394344 1.41992,0 0.38935,-0.391583 0.3876,-1.024633 -0.004,-1.414062 -0.46107,-0.398029 -1.03652,-0.356284 -1.40992,0 z m -11.3125,5.65625 c -0.39335,0.389106 -0.39597,1.023666 -0.006,1.416015 0.39117,0.394344 1.02875,0.394344 1.41992,0 0.39011,-0.392349 0.38749,-1.026909 -0.006,-1.416015 -0.38859,-0.366718 -0.98879,-0.392871 -1.40792,0 z m 7.07031,1.414062 c -0.39335,0.389107 -0.39597,1.023667 -0.006,1.416016 0.39117,0.394344 1.02875,0.394344 1.41992,0 0.39065,-0.391808 0.38891,-1.026366 -0.004,-1.416016 h -0.002 c -0.41368,-0.382549 -1.02998,-0.340553 -1.40792,0 z"
         transform="matrix(0.26458334,0,0,0.26458334,0,280.06666)"
         sodipodi:nodetypes="ccccccccccccccccccccccccccccccccc" />
      <path
         style="color:#000000;fill:#349951;fill-opacity:1;stroke-width:0.795662;stroke-linecap:round;stroke-linejoin:round;-inkscape-stroke:none"
         d="m -53.990234,254.16797 c -0.268346,0.40252 -0.467597,0.73683 -0.63086,0.99805 -0.07791,0.124 -0.04027,0.28771 0.08398,0.36523 0.124097,0.0762 0.286468,0.0378 0.363281,-0.0859 0.09735,-0.15576 0.23955,-0.37572 0.363281,-0.57226 0.05153,0.11599 0.113635,0.22958 0.154297,0.35156 0.04677,0.13774 0.19595,0.21189 0.333984,0.16601 0.138516,-0.046 0.21367,-0.19538 0.167969,-0.33398 -0.106657,-0.31996 -0.246615,-0.59674 -0.378906,-0.86133 -0.09916,-0.20301 -0.366247,-0.15079 -0.457026,-0.0274 z"
         id="path41893"
         sodipodi:nodetypes="cccccccccc" />
      <path
         style="color:#000000;fill:#349951;fill-opacity:1;stroke-width:0.795662;stroke-linecap:round;stroke-linejoin:round;-inkscape-stroke:none"
         d="m -56.832031,254.04883 a 0.26460996,0.26460996 0 0 0 -0.220703,0.14648 c -0.264582,0.52917 -0.556641,1.11816 -0.556641,1.97071 a 0.2645835,0.2645835 0 0 0 0.263672,0.26367 0.2645835,0.2645835 0 0 0 0.265625,-0.26367 c 0,-0.51648 0.190262,-0.85159 0.351562,-1.21875 0.10403,0.16637 0.231663,0.36245 0.316407,0.49804 a 0.2645835,0.2645835 0 0 0 0.365234,0.0859 0.2645835,0.2645835 0 0 0 0.08398,-0.36523 c -0.163262,-0.26122 -0.364467,-0.59553 -0.632812,-0.99805 a 0.26460996,0.26460996 0 0 0 -0.236328,-0.11914 z"
         id="path43157" />
      <path
         style="color:#000000;fill:#349951;fill-opacity:1;stroke-width:0.795662;stroke-linecap:round;stroke-linejoin:round;-inkscape-stroke:none"
         d="m -57.558594,257.23828 a 0.26460996,0.26460996 0 0 0 -0.173828,0.19727 c -0.11861,0.57962 -0.249952,1.22338 -0.0293,2.04687 a 0.2645835,0.2645835 0 0 0 0.324219,0.1875 0.2645835,0.2645835 0 0 0 0.1875,-0.32422 c -0.133608,-0.49863 -0.03531,-0.87136 0.02539,-1.26758 0.143503,0.13375 0.316673,0.29139 0.433593,0.4004 a 0.2645835,0.2645835 0 0 0 0.375,-0.0137 0.2645835,0.2645835 0 0 0 -0.01367,-0.37304 c -0.225311,-0.21007 -0.505761,-0.48338 -0.869141,-0.80274 a 0.26460996,0.26460996 0 0 0 -0.259766,-0.0508 z"
         id="path43159" />
    </g>
  </g>
</svg>
